<?xml version="1.0" encoding="utf-8"?>
<!-- Generator: Adobe Illustrator 16.0.0, SVG Export Plug-In . SVG Version: 6.00 Build 0)  -->
<!DOCTYPE svg PUBLIC "-//W3C//DTD SVG 1.1//EN" "http://www.w3.org/Graphics/SVG/1.1/DTD/svg11.dtd">
<svg version="1.1" id="Capa_1" xmlns="http://www.w3.org/2000/svg" xmlns:xlink="http://www.w3.org/1999/xlink" x="0px" y="0px"
	 width="595.276px" height="841.89px" viewBox="0 0 595.276 841.89" enable-background="new 0 0 595.276 841.89"
	 xml:space="preserve">
<g>
	<path fill-rule="evenodd" clip-rule="evenodd" fill="#707173" d="M310.01,619.424c-118.994-0.067-216.872-98.195-216.339-216.9
		c0.522-117.974,99.589-216.925,217.534-217.311c117.516-0.378,217.211,98.785,217.961,216.798
		C529.922,522.199,431.854,619.491,310.01,619.424z"/>
	<path fill-rule="evenodd" clip-rule="evenodd" fill="#E7B551" d="M298.879,610.103c-118.993-0.067-216.871-98.195-216.339-216.9
		c0.522-117.974,99.589-216.926,217.534-217.311c117.516-0.378,217.211,98.784,217.961,216.797
		C518.792,512.878,420.723,610.17,298.879,610.103z"/>
	
		<radialGradient id="SVGID_1_" cx="587.9565" cy="-97.7578" r="181.4611" gradientTransform="matrix(-4.371139e-008 -1 1 -4.371139e-008 398.0469 980.9541)" gradientUnits="userSpaceOnUse">
		<stop  offset="0" style="stop-color:#FFFFFD"/>
		<stop  offset="1" style="stop-color:#FDE5B9"/>
	</radialGradient>
	
		<path fill-rule="evenodd" clip-rule="evenodd" fill="url(#SVGID_1_)" stroke="#E7B551" stroke-width="0.7" stroke-linecap="round" stroke-linejoin="round" d="
		M300.39,211.92c99.602-0.013,183.025,83.419,181.728,181.736c-1.289,97.98-82.91,179.683-180.228,180.413
		c-98.819,0.741-182.527-81.676-183.438-180.603C117.533,294.766,200.545,211.934,300.39,211.92z"/>
	<g>
		<g>
			<path fill-rule="evenodd" clip-rule="evenodd" fill="#707173" d="M294.521,389.592c-2.398,6.888-6.275,13.142-14.357,12.005
				c-7.228-1.016-12.804-6.231-11.743-14.321c0.877-6.759,6.224-11.689,12.917-11.404
				C288.873,376.195,293.286,381.771,294.521,389.592z"/>
			<path fill-rule="evenodd" clip-rule="evenodd" fill="#707173" d="M404.73,463.768c7.076,2.305,13.096,6.201,12.484,14.23
				c-0.506,6.688-5.423,11.923-12.295,12.111c-7.836,0.209-13.336-5.263-13.453-12.795
				C391.344,469.642,397.333,465.491,404.73,463.768z"/>
			<path fill-rule="evenodd" clip-rule="evenodd" fill="#707173" d="M291.46,302.301c-0.721-3.708-2.235-7.469-1.996-11.114
				c0.469-7.158,4.525-12.04,12.08-12.022c7.296,0.021,11.815,4.171,12.521,11.614c0.825,8.848-4.949,12.738-12.331,13.835
				c-3.393,0.505-7.209-1.824-10.836-2.87L291.46,302.301z"/>
			<path fill-rule="evenodd" clip-rule="evenodd" fill="#707173" d="M211.216,477.486c-0.148,7.226-4.214,12.337-11.259,12.56
				c-7.872,0.244-13.05-4.516-13.02-13.021c0.026-8.643,5.667-13.188,13.295-12.678C206.865,464.79,211.772,469.504,211.216,477.486
				z"/>
			<path fill-rule="evenodd" clip-rule="evenodd" fill="#707173" d="M219.139,442.568c7.836,0.377,13.504,4.608,13.29,12.651
				c-0.168,6.51-4.239,12.044-11.994,12.298c-8.514,0.272-13.361-4.826-13.632-12.612
				C206.548,447.707,211.649,443.595,219.139,442.568z"/>
			<path fill-rule="evenodd" clip-rule="evenodd" fill="#707173" d="M206.359,380.026c2.106-6.94,5.597-12.96,14.172-12.366
				c7.387,0.511,11.662,6.076,11.943,12.665c0.306,7.061-4.8,12.162-11.871,12.568C212.557,393.35,207.971,388.189,206.359,380.026z
				"/>
			<path fill-rule="evenodd" clip-rule="evenodd" fill="#707173" d="M329.543,411.547c1.382-7.183,4.739-12.942,13.232-13.221
				c7.755-0.25,12.062,5.173,12.775,11.693c0.918,8.341-5.28,13.319-12.775,13.615C336.027,423.9,331.211,419.064,329.543,411.547z"
				/>
			<path fill-rule="evenodd" clip-rule="evenodd" fill="#707173" d="M329.528,335.693c1.949-8.134,6.509-12.657,14.845-11.759
				c7.429,0.796,11.965,5.77,11.209,12.785c-0.816,7.596-5.856,12.639-14.479,11.613
				C333.568,347.44,330.645,342.178,329.528,335.693z"/>
			<path fill-rule="evenodd" clip-rule="evenodd" fill="#707173" d="M260.38,397.956c9.106,1.538,12.999,6.266,12.275,14.509
				c-0.674,7.632-5.888,11.632-12.611,10.916c-7.352-0.789-12.504-5.385-11.525-14.183
				C249.392,401.379,254.589,399.01,260.38,397.956z"/>
			<path fill-rule="evenodd" clip-rule="evenodd" fill="#707173" d="M290.898,301.745c-1.658,3.582,1.627,5.709,2.454,8.556
				c2.435,8.354-1.296,13.573-9.3,15.425c-8.107,1.872-14.285-1.822-15.55-9.798c-1.25-7.938,3.24-13.318,11.75-13.958
				c3.703-0.278,7.464,0.199,11.203,0.334C291.46,302.301,290.898,301.745,290.898,301.745z"/>
			<path fill-rule="evenodd" clip-rule="evenodd" fill="#707173" d="M301.152,379.256c-8.285-0.831-12.02-5.979-11.564-13.861
				c0.428-7.532,5.682-11.32,12.688-10.915c6.739,0.396,11.851,3.999,11.811,11.848
				C314.043,374.757,309.519,378.807,301.152,379.256z"/>
			<path fill-rule="evenodd" clip-rule="evenodd" fill="#707173" d="M394.92,390.164c-3.612,1.024-7.367,3.236-10.812,2.828
				c-7.514-0.891-13.13-4.701-12.523-13.601c0.521-7.627,4.994-11.669,12.279-11.754c7.525-0.087,11.692,4.51,11.983,11.893
				c0.148,3.716-0.969,7.478-1.521,11.223L394.92,390.164z"/>
			<path fill-rule="evenodd" clip-rule="evenodd" fill="#707173" d="M227.592,358.092c0.729-7.64,5.122-12.821,12.019-12.696
				c7.388,0.13,13.107,4.622,12.902,13.291c-0.189,7.598-4.979,11.988-11.881,12.325
				C232.24,371.425,228.485,365.561,227.592,358.092z"/>
			<path fill-rule="evenodd" clip-rule="evenodd" fill="#707173" d="M334.481,389.141c-0.443,7.39-4.494,12.953-12.749,12.492
				c-6.77-0.381-11.611-4.717-11.702-12.416c-0.103-8.662,5.356-13.225,12.881-13.229
				C329.772,375.986,334.185,380.993,334.481,389.141z"/>
			<path fill-rule="evenodd" clip-rule="evenodd" fill="#707173" d="M394.328,390.753c8.312,0.443,18.188-3.5,22.433,8.198
				c2.081,5.729-0.658,10.262-4.598,13.241c-4.841,3.665-11.08,3.536-15.977-0.074c-8.848-6.51-2.536-14.507-1.262-21.952
				C394.92,390.164,394.328,390.753,394.328,390.753z"/>
			<path fill-rule="evenodd" clip-rule="evenodd" fill="#707173" d="M383.696,442.542c7.535,0.918,12.209,4.724,12.219,12.32
				c0.006,7.28-3.581,12.339-11.407,12.601c-8.617,0.294-12.938-4.308-12.947-12.916
				C371.544,446.296,377.339,444.021,383.696,442.542z"/>
			<path fill-rule="evenodd" clip-rule="evenodd" fill="#707173" d="M363.05,344.76c8.02,2.747,13.743,6.323,12.463,15.09
				c-1.066,7.292-5.983,11.581-12.953,11.142c-8.172-0.521-11.892-6.226-11.32-14.399
				C351.786,348.749,357.582,346.606,363.05,344.76z"/>
			<path fill-rule="evenodd" clip-rule="evenodd" fill="#707173" d="M211.134,401.591c-0.097,7.569-3.454,12.349-11.142,12.744
				c-7.153,0.367-12.428-2.391-12.933-10.453c-0.521-8.303,2.877-13.32,11.795-13.54
				C206.716,390.156,210.292,394.429,211.134,401.591z"/>
			<path fill-rule="evenodd" clip-rule="evenodd" fill="#707173" d="M236.703,420.954c10.8,0.016,15.367,3.571,15.734,11.219
				c0.413,8.624-4.153,12.925-12.698,12.774c-7.815-0.133-11.77-5.002-11.688-12.114
				C228.138,425.75,232.123,421.028,236.703,420.954z"/>
			<path fill-rule="evenodd" clip-rule="evenodd" fill="#707173" d="M272.858,335.271c-0.449,6.971-2.749,12.558-10.825,12.999
				c-8.362,0.458-13.167-3.339-13.503-12.102c-0.316-8.127,4.581-11.681,11.596-12.119
				C267.517,323.587,271.788,327.914,272.858,335.271z"/>
			<path fill-rule="evenodd" clip-rule="evenodd" fill="#707173" d="M351.021,432.594c1.392-7.387,4.826-11.963,12.753-11.606
				c8.878,0.397,12.402,5.51,11.673,13.741c-0.693,7.87-6.081,10.647-13.259,10.234
				C354.377,444.516,351.485,439.369,351.021,432.594z"/>
			<path fill-rule="evenodd" clip-rule="evenodd" fill="#707173" d="M320.452,301.916c9.83-0.122,13.505,4.451,13.729,11.716
				c0.229,7.425-3.77,12.109-11.341,12.325c-8.32,0.24-13.126-3.898-12.713-12.695C310.479,305.571,314.839,302.008,320.452,301.916
				z"/>
		</g>
		<g>
			<path fill-rule="evenodd" clip-rule="evenodd" fill="#E7B551" d="M288.683,384.592c-2.396,6.888-6.273,13.142-14.355,12.005
				c-7.229-1.016-12.805-6.231-11.744-14.321c0.877-6.759,6.224-11.689,12.918-11.404
				C283.037,371.195,287.45,376.771,288.683,384.592z"/>
			<path fill-rule="evenodd" clip-rule="evenodd" fill="#E7B551" d="M398.894,458.768c7.076,2.305,13.096,6.201,12.484,14.23
				c-0.506,6.688-5.423,11.923-12.295,12.111c-7.836,0.209-13.336-5.263-13.454-12.795
				C385.508,464.642,391.498,460.491,398.894,458.768z"/>
			<path fill-rule="evenodd" clip-rule="evenodd" fill="#E7B551" d="M285.623,297.301c-0.719-3.708-2.233-7.469-1.994-11.114
				c0.469-7.158,4.525-12.04,12.08-12.022c7.296,0.021,11.815,4.171,12.52,11.614c0.826,8.848-4.948,12.738-12.33,13.835
				c-3.393,0.505-7.209-1.824-10.836-2.87L285.623,297.301z"/>
			<path fill-rule="evenodd" clip-rule="evenodd" fill="#E7B551" d="M205.38,472.486c-0.148,7.226-4.214,12.337-11.259,12.56
				c-7.872,0.244-13.05-4.516-13.02-13.021c0.025-8.643,5.667-13.188,13.295-12.678C201.028,459.79,205.937,464.504,205.38,472.486z
				"/>
			<path fill-rule="evenodd" clip-rule="evenodd" fill="#E7B551" d="M213.303,437.568c7.836,0.377,13.503,4.608,13.29,12.651
				c-0.168,6.51-4.239,12.044-11.994,12.298c-8.514,0.272-13.361-4.826-13.632-12.612
				C200.711,442.707,205.813,438.595,213.303,437.568z"/>
			<path fill-rule="evenodd" clip-rule="evenodd" fill="#E7B551" d="M200.523,375.026c2.106-6.94,5.596-12.96,14.172-12.366
				c7.387,0.511,11.662,6.076,11.942,12.665c0.307,7.061-4.8,12.162-11.871,12.568C206.721,388.35,202.135,383.189,200.523,375.026z
				"/>
			<path fill-rule="evenodd" clip-rule="evenodd" fill="#E7B551" d="M323.708,406.547c1.382-7.183,4.738-12.942,13.232-13.221
				c7.755-0.25,12.061,5.173,12.775,11.693c0.917,8.341-5.281,13.319-12.775,13.615C330.191,418.9,325.375,414.064,323.708,406.547z
				"/>
			<path fill-rule="evenodd" clip-rule="evenodd" fill="#E7B551" d="M323.692,330.693c1.949-8.134,6.509-12.657,14.845-11.759
				c7.429,0.796,11.963,5.77,11.209,12.785c-0.816,7.596-5.856,12.639-14.479,11.613
				C327.732,342.44,324.808,337.178,323.692,330.693z"/>
			<path fill-rule="evenodd" clip-rule="evenodd" fill="#E7B551" d="M254.544,392.956c9.106,1.538,12.999,6.266,12.275,14.509
				c-0.674,7.632-5.888,11.632-12.612,10.916c-7.352-0.789-12.503-5.385-11.524-14.183
				C243.556,396.379,248.753,394.01,254.544,392.956z"/>
			<path fill-rule="evenodd" clip-rule="evenodd" fill="#E7B551" d="M285.062,296.745c-1.658,3.582,1.627,5.709,2.454,8.556
				c2.433,8.354-1.296,13.573-9.3,15.425c-8.107,1.872-14.285-1.822-15.551-9.798c-1.25-7.938,3.239-13.318,11.75-13.958
				c3.704-0.278,7.463,0.199,11.204,0.334C285.623,297.301,285.062,296.745,285.062,296.745z"/>
			<path fill-rule="evenodd" clip-rule="evenodd" fill="#E7B551" d="M295.316,374.256c-8.285-0.831-12.02-5.979-11.564-13.861
				c0.428-7.532,5.682-11.32,12.687-10.915c6.739,0.396,11.852,3.999,11.812,11.848
				C308.208,369.757,303.683,373.807,295.316,374.256z"/>
			<path fill-rule="evenodd" clip-rule="evenodd" fill="#E7B551" d="M389.084,385.164c-3.612,1.024-7.368,3.236-10.812,2.828
				c-7.514-0.891-13.131-4.701-12.523-13.601c0.521-7.627,4.994-11.669,12.279-11.754c7.525-0.087,11.692,4.51,11.983,11.893
				c0.148,3.716-0.969,7.478-1.521,11.223L389.084,385.164z"/>
			<path fill-rule="evenodd" clip-rule="evenodd" fill="#E7B551" d="M221.756,353.092c0.729-7.64,5.122-12.821,12.019-12.696
				c7.387,0.13,13.107,4.622,12.902,13.291c-0.189,7.598-4.979,11.988-11.881,12.325
				C226.403,366.425,222.649,360.561,221.756,353.092z"/>
			<path fill-rule="evenodd" clip-rule="evenodd" fill="#E7B551" d="M328.645,384.141c-0.443,7.39-4.494,12.953-12.749,12.492
				c-6.77-0.381-11.611-4.717-11.703-12.416c-0.102-8.662,5.357-13.225,12.882-13.229
				C323.936,370.986,328.349,375.993,328.645,384.141z"/>
			<path fill-rule="evenodd" clip-rule="evenodd" fill="#E7B551" d="M388.492,385.753c8.312,0.443,18.188-3.5,22.433,8.198
				c2.081,5.729-0.658,10.262-4.598,13.241c-4.841,3.665-11.08,3.536-15.978-0.074c-8.847-6.51-2.535-14.507-1.261-21.952
				C389.084,385.164,388.492,385.753,388.492,385.753z"/>
			<path fill-rule="evenodd" clip-rule="evenodd" fill="#E7B551" d="M377.86,437.542c7.535,0.918,12.208,4.724,12.219,12.32
				c0.006,7.28-3.581,12.339-11.407,12.601c-8.617,0.294-12.938-4.308-12.947-12.916
				C365.708,441.296,371.503,439.021,377.86,437.542z"/>
			<path fill-rule="evenodd" clip-rule="evenodd" fill="#E7B551" d="M357.214,339.76c8.02,2.747,13.743,6.323,12.463,15.09
				c-1.066,7.292-5.983,11.581-12.953,11.142c-8.172-0.521-11.892-6.226-11.32-14.399
				C345.95,343.749,351.746,341.606,357.214,339.76z"/>
			<path fill-rule="evenodd" clip-rule="evenodd" fill="#E7B551" d="M205.298,396.591c-0.097,7.569-3.454,12.349-11.143,12.744
				c-7.152,0.367-12.427-2.391-12.932-10.453c-0.521-8.303,2.877-13.32,11.795-13.54
				C200.88,385.156,204.456,389.429,205.298,396.591z"/>
			<path fill-rule="evenodd" clip-rule="evenodd" fill="#E7B551" d="M230.867,415.954c10.8,0.016,15.367,3.571,15.734,11.219
				c0.413,8.624-4.153,12.925-12.698,12.774c-7.816-0.133-11.77-5.002-11.688-12.114
				C222.302,420.75,226.286,416.028,230.867,415.954z"/>
			<path fill-rule="evenodd" clip-rule="evenodd" fill="#E7B551" d="M267.022,330.271c-0.449,6.971-2.749,12.558-10.825,12.999
				c-8.362,0.458-13.168-3.339-13.505-12.102c-0.316-8.127,4.582-11.681,11.597-12.119
				C261.681,318.587,265.952,322.914,267.022,330.271z"/>
			<path fill-rule="evenodd" clip-rule="evenodd" fill="#E7B551" d="M345.185,427.594c1.392-7.387,4.826-11.963,12.753-11.606
				c8.877,0.397,12.402,5.51,11.673,13.741c-0.693,7.87-6.081,10.647-13.259,10.234
				C348.542,439.516,345.649,434.369,345.185,427.594z"/>
			<path fill-rule="evenodd" clip-rule="evenodd" fill="#E7B551" d="M314.616,296.916c9.83-0.122,13.503,4.451,13.729,11.716
				c0.229,7.425-3.77,12.109-11.341,12.325c-8.32,0.24-13.127-3.898-12.713-12.695C304.641,300.571,309.003,297.008,314.616,296.916
				z"/>
		</g>
	</g>
</g>
</svg>
